<?xml version="1.0"?>
<!-- Converted with SVG Converter - Version 0.9.5 (Compiled Mon May 30 09:08:51 2011) - Copyright (C) 2011 Nokia -->
<svg xmlns="http://www.w3.org/2000/svg" width="96" version="1.1" height="96" viewBox="0 0 96 96" xmlns:xlink="http://www.w3.org/1999/xlink" baseProfile="tiny" id="ORANGE_BACKGROUNDS" xml:space="preserve">
 <metadata id="metadata3069"/>
 <defs id="defs3067">
  <linearGradient id="linearGradient5113">
   <stop offset="0" style="stop-color:#64af2d;stop-opacity:1" id="stop5115"/>
  </linearGradient>
  <linearGradient id="linearGradient5332">
   <stop offset="0" style="stop-color:#78c56d;stop-opacity:1" id="stop5334"/>
  </linearGradient>
  <linearGradient id="linearGradient3799">
   <stop offset="0" style="stop-color:#7886e4;stop-opacity:1" id="stop3801"/>
  </linearGradient>
  <linearGradient id="RED_x2F_ORANGE_5_2_-1" y1="8.0107002" x1="47.9995" y2="87.9897" x2="47.9995" gradientUnits="userSpaceOnUse">
   <stop offset="0" style="stop-color:#ffdb62;stop-opacity:1" id="stop3054-7"/>
   <stop offset="0.1393" style="stop-color:#fad15c;stop-opacity:1" id="stop3056-4"/>
   <stop offset="0.3741" style="stop-color:#edb74d;stop-opacity:1" id="stop3058-0"/>
   <stop offset="0.48480001" style="stop-color:#e6a844;stop-opacity:1" id="stop3060-9"/>
   <stop offset="1" style="stop-color:#c96b25;stop-opacity:1" id="stop3062-4"/>
  </linearGradient>
  <linearGradient gradientTransform="translate(2.000003,-1.988)" id="linearGradient3091" y1="8.0107002" x1="47.9995" y2="87.9897" x2="47.9995" gradientUnits="userSpaceOnUse">
   <stop offset="0" style="stop-color:#ffdb62;stop-opacity:1" id="stop3054-7"/>
   <stop offset="0.1393" style="stop-color:#fad15c;stop-opacity:1" id="stop3056-4"/>
   <stop offset="0.3741" style="stop-color:#edb74d;stop-opacity:1" id="stop3058-0"/>
   <stop offset="0.48480001" style="stop-color:#e6a844;stop-opacity:1" id="stop3060-9"/>
   <stop offset="1" style="stop-color:#c96b25;stop-opacity:1" id="stop3062-4"/>
  </linearGradient>
  <linearGradient gradientTransform="translate(1.5e-6,5e-4)" id="linearGradient3124" y1="8.0107002" x1="47.9995" y2="87.9897" x2="47.9995" gradientUnits="userSpaceOnUse">
   <stop offset="0" style="stop-color:#ffdb62;stop-opacity:1" id="stop3054-7"/>
   <stop offset="0.1393" style="stop-color:#fad15c;stop-opacity:1" id="stop3056-4"/>
   <stop offset="0.3741" style="stop-color:#edb74d;stop-opacity:1" id="stop3058-0"/>
   <stop offset="0.48480001" style="stop-color:#e6a844;stop-opacity:1" id="stop3060-9"/>
   <stop offset="1" style="stop-color:#c96b25;stop-opacity:1" id="stop3062-4"/>
  </linearGradient>
  <linearGradient gradientTransform="translate(1.5e-6,5e-4)" id="linearGradient3124-1" y1="8.0107002" x1="47.9995" y2="87.9897" x2="47.9995" gradientUnits="userSpaceOnUse">
   <stop offset="0" style="stop-color:#ffdb62;stop-opacity:1" id="stop3054-7-4"/>
   <stop offset="0.1393" style="stop-color:#fad15c;stop-opacity:1" id="stop3056-4-0"/>
   <stop offset="0.3741" style="stop-color:#edb74d;stop-opacity:1" id="stop3058-0-9"/>
   <stop offset="0.48480001" style="stop-color:#e6a844;stop-opacity:1" id="stop3060-9-4"/>
   <stop offset="1" style="stop-color:#c96b25;stop-opacity:1" id="stop3062-4-8"/>
  </linearGradient>
  <linearGradient id="RED_x2F_ORANGE_5_2_-1-7" y1="8.0107002" x1="47.9995" y2="87.9897" x2="47.9995" gradientUnits="userSpaceOnUse">
   <stop offset="0" style="stop-color:#ffdb62;stop-opacity:1" id="stop3054-7-4"/>
   <stop offset="0.1393" style="stop-color:#fad15c;stop-opacity:1" id="stop3056-4-0"/>
   <stop offset="0.3741" style="stop-color:#edb74d;stop-opacity:1" id="stop3058-0-9"/>
   <stop offset="0.48480001" style="stop-color:#e6a844;stop-opacity:1" id="stop3060-9-4"/>
   <stop offset="1" style="stop-color:#c96b25;stop-opacity:1" id="stop3062-4-8"/>
  </linearGradient>
  <linearGradient gradientTransform="translate(1.5e-6,5e-4)" id="linearGradient3234" y1="8.0107002" x1="47.9995" y2="87.9897" x2="47.9995" gradientUnits="userSpaceOnUse">
   <stop offset="0" style="stop-color:#ffdb62;stop-opacity:1" id="stop3054-7-4"/>
   <stop offset="0.1393" style="stop-color:#fad15c;stop-opacity:1" id="stop3056-4-0"/>
   <stop offset="0.3741" style="stop-color:#edb74d;stop-opacity:1" id="stop3058-0-9"/>
   <stop offset="0.48480001" style="stop-color:#e6a844;stop-opacity:1" id="stop3060-9-4"/>
   <stop offset="1" style="stop-color:#c96b25;stop-opacity:1" id="stop3062-4-8"/>
  </linearGradient>
  <linearGradient gradientTransform="translate(1.5e-6,5e-4)" id="linearGradient3234-8" y1="8.0107002" x1="47.9995" y2="87.9897" x2="47.9995" gradientUnits="userSpaceOnUse">
   <stop offset="0" style="stop-color:#ffdb62;stop-opacity:1" id="stop3054-7-4-4"/>
   <stop offset="0.1393" style="stop-color:#fad15c;stop-opacity:1" id="stop3056-4-0-5"/>
   <stop offset="0.3741" style="stop-color:#edb74d;stop-opacity:1" id="stop3058-0-9-5"/>
   <stop offset="0.48480001" style="stop-color:#e6a844;stop-opacity:1" id="stop3060-9-4-1"/>
   <stop offset="1" style="stop-color:#c96b25;stop-opacity:1" id="stop3062-4-8-7"/>
  </linearGradient>
  <linearGradient id="RED_x2F_ORANGE_5_2_-1-7-2" y1="8.0107002" x1="47.9995" y2="87.9897" x2="47.9995" gradientUnits="userSpaceOnUse">
   <stop offset="0" style="stop-color:#ffdb62;stop-opacity:1" id="stop3054-7-4-4"/>
   <stop offset="0.1393" style="stop-color:#fad15c;stop-opacity:1" id="stop3056-4-0-5"/>
   <stop offset="0.3741" style="stop-color:#edb74d;stop-opacity:1" id="stop3058-0-9-5"/>
   <stop offset="0.48480001" style="stop-color:#e6a844;stop-opacity:1" id="stop3060-9-4-1"/>
   <stop offset="1" style="stop-color:#c96b25;stop-opacity:1" id="stop3062-4-8-7"/>
  </linearGradient>
  <linearGradient gradientTransform="translate(1.5e-6,5e-4)" id="linearGradient3277" y1="8.0107002" x1="47.9995" y2="87.9897" x2="47.9995" gradientUnits="userSpaceOnUse">
   <stop offset="0" style="stop-color:#ffdb62;stop-opacity:1" id="stop3054-7-4-4"/>
   <stop offset="0.1393" style="stop-color:#fad15c;stop-opacity:1" id="stop3056-4-0-5"/>
   <stop offset="0.3741" style="stop-color:#edb74d;stop-opacity:1" id="stop3058-0-9-5"/>
   <stop offset="0.48480001" style="stop-color:#e6a844;stop-opacity:1" id="stop3060-9-4-1"/>
   <stop offset="1" style="stop-color:#c96b25;stop-opacity:1" id="stop3062-4-8-7"/>
  </linearGradient>
  <linearGradient id="linearGradient3803-1" y1="31.75" x1="-77.5" y2="31.75" x2="-15" gradientUnits="userSpaceOnUse">
   <stop offset="0" style="stop-color:#78d9e4;stop-opacity:1" id="stop3801-4"/>
  </linearGradient>
  <linearGradient id="linearGradient3799-7">
   <stop offset="0" style="stop-color:#78d9e4;stop-opacity:1" id="stop3801-4"/>
  </linearGradient>
  <linearGradient id="linearGradient3819-9" y1="31.75" x1="-77.5" y2="31.75" x2="-15" gradientUnits="userSpaceOnUse">
   <stop offset="0" style="stop-color:#782ee4;stop-opacity:1" id="stop3801-4-8"/>
  </linearGradient>
  <linearGradient id="linearGradient3799-7-4">
   <stop offset="0" style="stop-color:#782ee4;stop-opacity:1" id="stop3801-4-8"/>
  </linearGradient>
  <linearGradient id="linearGradient3850-2" y1="31.75" x1="-77.5" y2="31.75" x2="-15" gradientUnits="userSpaceOnUse">
   <stop offset="0" style="stop-color:#782e38;stop-opacity:1" id="stop3801-4-8-5"/>
  </linearGradient>
  <linearGradient id="linearGradient3799-7-4-4">
   <stop offset="0" style="stop-color:#782e38;stop-opacity:1" id="stop3801-4-8-5"/>
  </linearGradient>
  <linearGradient gradientTransform="translate(1.5e-6,5e-4)" id="linearGradient3277-1" y1="8.0107002" x1="47.9995" y2="87.9897" x2="47.9995" gradientUnits="userSpaceOnUse">
   <stop offset="0" style="stop-color:#ffdb62;stop-opacity:1" id="stop3054-7-4-4-4"/>
   <stop offset="0.1393" style="stop-color:#fad15c;stop-opacity:1" id="stop3056-4-0-5-0"/>
   <stop offset="0.3741" style="stop-color:#edb74d;stop-opacity:1" id="stop3058-0-9-5-9"/>
   <stop offset="0.48480001" style="stop-color:#e6a844;stop-opacity:1" id="stop3060-9-4-1-4"/>
   <stop offset="1" style="stop-color:#c96b25;stop-opacity:1" id="stop3062-4-8-7-8"/>
  </linearGradient>
  <linearGradient id="RED_x2F_ORANGE_5_2_-1-7-2-7" y1="8.0107002" x1="47.9995" y2="87.9897" x2="47.9995" gradientUnits="userSpaceOnUse">
   <stop offset="0" style="stop-color:#ffdb62;stop-opacity:1" id="stop3054-7-4-4-4"/>
   <stop offset="0.1393" style="stop-color:#fad15c;stop-opacity:1" id="stop3056-4-0-5-0"/>
   <stop offset="0.3741" style="stop-color:#edb74d;stop-opacity:1" id="stop3058-0-9-5-9"/>
   <stop offset="0.48480001" style="stop-color:#e6a844;stop-opacity:1" id="stop3060-9-4-1-4"/>
   <stop offset="1" style="stop-color:#c96b25;stop-opacity:1" id="stop3062-4-8-7-8"/>
  </linearGradient>
  <linearGradient gradientTransform="translate(1.5e-6,5e-4)" id="linearGradient4552" y1="8.0107002" x1="47.9995" y2="87.9897" x2="47.9995" gradientUnits="userSpaceOnUse">
   <stop offset="0" style="stop-color:#ffdb62;stop-opacity:1" id="stop3054-7-4-4-4"/>
   <stop offset="0.1393" style="stop-color:#fad15c;stop-opacity:1" id="stop3056-4-0-5-0"/>
   <stop offset="0.3741" style="stop-color:#edb74d;stop-opacity:1" id="stop3058-0-9-5-9"/>
   <stop offset="0.48480001" style="stop-color:#e6a844;stop-opacity:1" id="stop3060-9-4-1-4"/>
   <stop offset="1" style="stop-color:#c96b25;stop-opacity:1" id="stop3062-4-8-7-8"/>
  </linearGradient>
  <linearGradient gradientTransform="translate(1.5e-6,5e-4)" id="linearGradient4552-2" y1="8.0107002" x1="47.9995" y2="87.9897" x2="47.9995" gradientUnits="userSpaceOnUse">
   <stop offset="0" style="stop-color:#ffdb62;stop-opacity:1" id="stop3054-7-4-4-4-5"/>
   <stop offset="0.1393" style="stop-color:#fad15c;stop-opacity:1" id="stop3056-4-0-5-0-5"/>
   <stop offset="0.3741" style="stop-color:#edb74d;stop-opacity:1" id="stop3058-0-9-5-9-1"/>
   <stop offset="0.48480001" style="stop-color:#e6a844;stop-opacity:1" id="stop3060-9-4-1-4-7"/>
   <stop offset="1" style="stop-color:#c96b25;stop-opacity:1" id="stop3062-4-8-7-8-1"/>
  </linearGradient>
  <linearGradient id="RED_x2F_ORANGE_5_2_-1-7-2-7-4" y1="8.0107002" x1="47.9995" y2="87.9897" x2="47.9995" gradientUnits="userSpaceOnUse">
   <stop offset="0" style="stop-color:#ffdb62;stop-opacity:1" id="stop3054-7-4-4-4-5"/>
   <stop offset="0.1393" style="stop-color:#fad15c;stop-opacity:1" id="stop3056-4-0-5-0-5"/>
   <stop offset="0.3741" style="stop-color:#edb74d;stop-opacity:1" id="stop3058-0-9-5-9-1"/>
   <stop offset="0.48480001" style="stop-color:#e6a844;stop-opacity:1" id="stop3060-9-4-1-4-7"/>
   <stop offset="1" style="stop-color:#c96b25;stop-opacity:1" id="stop3062-4-8-7-8-1"/>
  </linearGradient>
  <linearGradient id="RED_x2F_ORANGE_5_2_-8" y1="8.0107002" x1="47.9995" y2="87.9897" x2="47.9995" gradientUnits="userSpaceOnUse">
   <stop offset="0" style="stop-color:#ffdb62;stop-opacity:1" id="stop6363"/>
   <stop offset="0.1393" style="stop-color:#fad15c;stop-opacity:1" id="stop6365"/>
   <stop offset="0.3741" style="stop-color:#edb74d;stop-opacity:1" id="stop6367"/>
   <stop offset="0.48480001" style="stop-color:#e6a844;stop-opacity:1" id="stop6369"/>
   <stop offset="1" style="stop-color:#c96b25;stop-opacity:1" id="stop6371"/>
  </linearGradient>
  <linearGradient id="HIGHLIGHTS_RO5_1_" y1="8.2559004" x1="47.9995" y2="87.504303" x2="47.9995" gradientUnits="userSpaceOnUse">
   <stop offset="0" style="stop-color:#ffffff;stop-opacity:1" id="stop6375"/>
   <stop offset="0.0958" style="stop-color:#fdf8f5;stop-opacity:1" id="stop6377"/>
   <stop offset="0.2579" style="stop-color:#f6e6db;stop-opacity:1" id="stop6379"/>
   <stop offset="0.4666" style="stop-color:#ebc9af;stop-opacity:1" id="stop6381"/>
   <stop offset="0.71359998" style="stop-color:#dca073;stop-opacity:1" id="stop6383"/>
   <stop offset="0.99040002" style="stop-color:#ca6d28;stop-opacity:1" id="stop6385"/>
   <stop offset="1" style="stop-color:#c96b25;stop-opacity:1" id="stop6387"/>
  </linearGradient>
  <linearGradient id="linearGradient5094" y1="8.0107002" x1="47.9995" y2="87.9897" x2="47.9995" gradientUnits="userSpaceOnUse">
   <stop offset="0.0364" style="stop-color:#4791d9;stop-opacity:1" id="stop4267"/>
   <stop offset="0.24959999" style="stop-color:#4288cf;stop-opacity:1" id="stop4269"/>
   <stop offset="0.61019999" style="stop-color:#366eb5;stop-opacity:1" id="stop4271"/>
   <stop offset="1" style="stop-color:#264c91;stop-opacity:1" id="stop4273"/>
  </linearGradient>
  <linearGradient gradientTransform="matrix(0.14388489,0,0,0.14184397,-12.158274,-16.411348)" id="linearGradient5117-3" y1="-35.875" x1="-54.5" y2="-35.875" x2="-19.75" gradientUnits="userSpaceOnUse">
   <stop offset="0" style="stop-color:#449311;stop-opacity:1" id="stop5115-9"/>
  </linearGradient>
  <linearGradient id="linearGradient5113-1">
   <stop offset="0" style="stop-color:#449311;stop-opacity:1" id="stop5115-9"/>
  </linearGradient>
  <linearGradient gradientTransform="matrix(0.14388489,0,0,0.14184397,-7.158274,-16.411348)" id="linearGradient5133-6" y1="-35.875" x1="-54.5" y2="-35.875" x2="-19.75" gradientUnits="userSpaceOnUse">
   <stop offset="0" style="stop-color:#128406;stop-opacity:1" id="stop5115-9-0"/>
  </linearGradient>
  <linearGradient id="linearGradient5113-1-5">
   <stop offset="0" style="stop-color:#128406;stop-opacity:1" id="stop5115-9-0"/>
  </linearGradient>
  <linearGradient gradientTransform="matrix(0.14388489,0,0,0.14184397,-2.158274,-16.411348)" id="linearGradient5164-8" y1="-35.875" x1="-54.5" y2="-35.875" x2="-19.75" gradientUnits="userSpaceOnUse">
   <stop offset="0" style="stop-color:#009351;stop-opacity:1" id="stop5115-9-0-0"/>
  </linearGradient>
  <linearGradient id="linearGradient5113-1-5-6">
   <stop offset="0" style="stop-color:#009351;stop-opacity:1" id="stop5115-9-0-0"/>
  </linearGradient>
  <linearGradient id="linearGradient5113-1-5-6-8">
   <stop offset="0" style="stop-color:#1b34b2;stop-opacity:1" id="stop5115-9-0-0-6"/>
  </linearGradient>
  <linearGradient id="linearGradient5113-1-5-0">
   <stop offset="0" style="stop-color:#0066a8;stop-opacity:1" id="stop5115-9-0-9"/>
  </linearGradient>
  <linearGradient id="linearGradient5113-1-0">
   <stop offset="0" style="stop-color:#0082b6;stop-opacity:1" id="stop5115-9-6"/>
  </linearGradient>
  <linearGradient gradientTransform="matrix(0.14388489,0,0,0.14184397,-12.158274,-16.411348)" id="linearGradient5117-1" y1="-35.875" x1="-54.5" y2="-35.875" x2="-19.75" gradientUnits="userSpaceOnUse">
   <stop offset="0" style="stop-color:#0d9758;stop-opacity:1" id="stop5115-8"/>
  </linearGradient>
  <linearGradient id="linearGradient5113-3">
   <stop offset="0" style="stop-color:#0d9758;stop-opacity:1" id="stop5115-8"/>
  </linearGradient>
  <linearGradient gradientTransform="matrix(0.14388489,0,0,0.14184397,-12.158274,-11.411348)" id="linearGradient5238-6" y1="-35.875" x1="-54.5" y2="-35.875" x2="-19.75" gradientUnits="userSpaceOnUse">
   <stop offset="0" style="stop-color:#2c00a5;stop-opacity:1" id="stop5115-8-6"/>
  </linearGradient>
  <linearGradient id="linearGradient5113-3-0">
   <stop offset="0" style="stop-color:#2c00a5;stop-opacity:1" id="stop5115-8-6"/>
  </linearGradient>
  <linearGradient id="linearGradient5113-1-0-1">
   <stop offset="0" style="stop-color:#62226a;stop-opacity:1" id="stop5115-9-6-8"/>
  </linearGradient>
  <linearGradient id="linearGradient5113-1-5-0-9">
   <stop offset="0" style="stop-color:#e50c98;stop-opacity:1" id="stop5115-9-0-9-6"/>
  </linearGradient>
  <linearGradient id="linearGradient5113-1-5-6-8-7">
   <stop offset="0" style="stop-color:#ec297b;stop-opacity:1" id="stop5115-9-0-0-6-8"/>
  </linearGradient>
  <linearGradient id="linearGradient5113-1-5-6-8-7-5">
   <stop offset="0" style="stop-color:#ff7a0d;stop-opacity:1" id="stop5115-9-0-0-6-8-9"/>
  </linearGradient>
  <linearGradient id="linearGradient5113-1-5-0-9-4">
   <stop offset="0" style="stop-color:#ff5b00;stop-opacity:1" id="stop5115-9-0-9-6-0"/>
  </linearGradient>
  <linearGradient id="linearGradient5113-1-0-1-6">
   <stop offset="0" style="stop-color:#f74000;stop-opacity:1" id="stop5115-9-6-8-3"/>
  </linearGradient>
  <linearGradient gradientTransform="matrix(0.14388489,0,0,0.14184397,-12.158274,-6.411348)" id="linearGradient5305-6" y1="-35.875" x1="-54.5" y2="-35.875" x2="-19.75" gradientUnits="userSpaceOnUse">
   <stop offset="0" style="stop-color:#e21429;stop-opacity:1" id="stop5115-8-6-5"/>
  </linearGradient>
  <linearGradient id="linearGradient5113-3-0-1">
   <stop offset="0" style="stop-color:#e21429;stop-opacity:1" id="stop5115-8-6-5"/>
  </linearGradient>
  <linearGradient id="linearGradient5113-1-5-6-8-7-5-3">
   <stop offset="0" style="stop-color:#e0e0e0;stop-opacity:1" id="stop5115-9-0-0-6-8-9-7"/>
  </linearGradient>
  <linearGradient id="linearGradient5113-1-5-0-9-4-6">
   <stop offset="0" style="stop-color:#e8e8e8;stop-opacity:1" id="stop5115-9-0-9-6-0-0"/>
  </linearGradient>
  <linearGradient id="linearGradient5113-1-0-1-6-6">
   <stop offset="0" style="stop-color:#f7d303;stop-opacity:1" id="stop5115-9-6-8-3-5"/>
  </linearGradient>
  <linearGradient gradientTransform="matrix(0.14388489,0,0,0.14184397,-12.158274,-1.411348)" id="linearGradient5372-7" y1="-35.875" x1="-54.5" y2="-35.875" x2="-19.75" gradientUnits="userSpaceOnUse">
   <stop offset="0" style="stop-color:#ffa300;stop-opacity:1" id="stop5115-8-6-5-4"/>
  </linearGradient>
  <linearGradient id="linearGradient5113-3-0-1-5">
   <stop offset="0" style="stop-color:#ffa300;stop-opacity:1" id="stop5115-8-6-5-4"/>
  </linearGradient>
  <linearGradient gradientTransform="matrix(0.14388489,0,0,0.14184397,-12.158274,8.588652)" id="linearGradient5164-5-4-8-2-1" y1="-35.875" x1="-54.5" y2="-35.875" x2="-19.75" gradientUnits="userSpaceOnUse">
   <stop offset="0" style="stop-color:#d3d3d3;stop-opacity:1" id="stop5115-9-0-9-6-0-0-6"/>
  </linearGradient>
  <linearGradient id="linearGradient5113-1-5-0-9-4-6-4">
   <stop offset="0" style="stop-color:#d3d3d3;stop-opacity:1" id="stop5115-9-0-9-6-0-0-6"/>
  </linearGradient>
  <linearGradient id="linearGradient5113-1-5-6-8-7-5-3-7">
   <stop offset="0" style="stop-color:#cecece;stop-opacity:1" id="stop5115-9-0-0-6-8-9-7-1"/>
  </linearGradient>
  <linearGradient id="SVGID_1_" y1="39.117199" x1="48.452099" y2="70.455498" x2="48.452099" gradientUnits="userSpaceOnUse">
   <stop offset="0.32319999" style="stop-color:#fafcef;stop-opacity:1" id="stop4392-1"/>
   <stop offset="1" style="stop-color:#d0cbc5;stop-opacity:1" id="stop4394-7"/>
  </linearGradient>
  <linearGradient gradientTransform="translate(68.546831,-90.188689)" id="linearGradient4418" y1="39.117199" x1="48.452099" y2="70.455498" x2="48.452099" gradientUnits="userSpaceOnUse">
   <stop offset="0.32319999" style="stop-color:#fafcef;stop-opacity:1" id="stop4392-1"/>
   <stop offset="1" style="stop-color:#d0cbc5;stop-opacity:1" id="stop4394-7"/>
  </linearGradient>
  <linearGradient gradientTransform="matrix(0,-79.244629,-79.244629,0,298.0083,460.06738)" id="linearGradient4305" y1="0" x1="0" y2="0" x2="1" gradientUnits="userSpaceOnUse">
   <stop offset="0" style="stop-color:#ffffff;stop-opacity:1" id="stop4307"/>
   <stop offset="1" style="stop-color:#ffffff;stop-opacity:1" id="stop4309"/>
  </linearGradient>
  <linearGradient gradientTransform="matrix(0,-79.244629,-79.244629,0,298.0083,460.06738)" id="linearGradient4287" y1="0" x1="0" y2="0" x2="1" gradientUnits="userSpaceOnUse">
   <stop offset="0" style="stop-color:#ffffff;stop-opacity:1" id="stop4289-2"/>
   <stop offset="1" style="stop-color:#ffffff;stop-opacity:0" id="stop4291"/>
  </linearGradient>
  <linearGradient gradientTransform="matrix(0,-74.982803,-74.982803,0,298.0083,464.77588)" id="linearGradient4247" y1="0" x1="0" y2="0" x2="1" gradientUnits="userSpaceOnUse">
   <stop offset="0" style="stop-color:#ffffff;stop-opacity:1" id="stop4249"/>
   <stop offset="1" style="stop-color:#ffffff;stop-opacity:1" id="stop4251"/>
  </linearGradient>
  <linearGradient gradientTransform="matrix(0,-74.982803,-74.982803,0,298.0083,464.77588)" id="linearGradient4229" y1="0" x1="0" y2="0" x2="1" gradientUnits="userSpaceOnUse">
   <stop offset="0" style="stop-color:#ffffff;stop-opacity:1" id="stop4231"/>
   <stop offset="1" style="stop-color:#ffffff;stop-opacity:0.17999542" id="stop4233"/>
  </linearGradient>
  <linearGradient gradientTransform="matrix(0,-80.694397,-80.694397,0,298.0083,460.85986)" id="linearGradient4189" y1="0" x1="0" y2="0" x2="1" gradientUnits="userSpaceOnUse">
   <stop offset="0" style="stop-color:#000000;stop-opacity:1" id="stop4191"/>
   <stop offset="1" style="stop-color:#000000;stop-opacity:1" id="stop4193"/>
  </linearGradient>
  <linearGradient gradientTransform="matrix(0,-80.694397,-80.694397,0,298.0083,460.85986)" id="linearGradient4171" y1="0" x1="0" y2="0" x2="1" gradientUnits="userSpaceOnUse">
   <stop offset="0" style="stop-color:#ffffff;stop-opacity:0" id="stop4173"/>
   <stop offset="1" style="stop-color:#ffffff;stop-opacity:1" id="stop4175"/>
  </linearGradient>
  <linearGradient gradientTransform="matrix(0,-80.694397,-80.694397,0,298.0083,460.85986)" id="linearGradient4171-4" y1="0" x1="0" y2="0" x2="1" gradientUnits="userSpaceOnUse">
   <stop offset="0" style="stop-color:#ffffff;stop-opacity:0" id="stop4173-9"/>
   <stop offset="1" style="stop-color:#ffffff;stop-opacity:1" id="stop4175-6"/>
  </linearGradient>
  <linearGradient gradientTransform="matrix(0,-80.694397,-80.694397,0,298.0083,460.85986)" id="linearGradient4189-3" y1="0" x1="0" y2="0" x2="1" gradientUnits="userSpaceOnUse">
   <stop offset="0" style="stop-color:#000000;stop-opacity:1" id="stop4191-7"/>
   <stop offset="1" style="stop-color:#000000;stop-opacity:1" id="stop4193-8"/>
  </linearGradient>
  <linearGradient gradientTransform="matrix(0,-74.982803,-74.982803,0,298.0083,464.77588)" id="linearGradient4229-7" y1="0" x1="0" y2="0" x2="1" gradientUnits="userSpaceOnUse">
   <stop offset="0" style="stop-color:#ffffff;stop-opacity:1" id="stop4231-6"/>
   <stop offset="1" style="stop-color:#ffffff;stop-opacity:0.17999542" id="stop4233-3"/>
  </linearGradient>
  <linearGradient gradientTransform="matrix(0,-74.982803,-74.982803,0,298.0083,464.77588)" id="linearGradient4247-6" y1="0" x1="0" y2="0" x2="1" gradientUnits="userSpaceOnUse">
   <stop offset="0" style="stop-color:#ffffff;stop-opacity:1" id="stop4249-1"/>
   <stop offset="1" style="stop-color:#ffffff;stop-opacity:1" id="stop4251-5"/>
  </linearGradient>
  <linearGradient gradientTransform="matrix(0,-79.244629,-79.244629,0,298.0083,460.06738)" id="linearGradient4287-1" y1="0" x1="0" y2="0" x2="1" gradientUnits="userSpaceOnUse">
   <stop offset="0" style="stop-color:#ffffff;stop-opacity:1" id="stop4289-2-6"/>
   <stop offset="1" style="stop-color:#ffffff;stop-opacity:0" id="stop4291-5"/>
  </linearGradient>
  <linearGradient gradientTransform="matrix(0,-79.244629,-79.244629,0,298.0083,460.06738)" id="linearGradient4305-7" y1="0" x1="0" y2="0" x2="1" gradientUnits="userSpaceOnUse">
   <stop offset="0" style="stop-color:#ffffff;stop-opacity:1" id="stop4307-5"/>
   <stop offset="1" style="stop-color:#ffffff;stop-opacity:1" id="stop4309-4"/>
  </linearGradient>
  <linearGradient gradientTransform="matrix(0,-80.694397,-80.694397,0,298.0083,460.85986)" id="linearGradient5735" y1="0" x1="0" y2="0" x2="1" gradientUnits="userSpaceOnUse">
   <stop offset="0" style="stop-color:#000000;stop-opacity:1" id="stop4191-7"/>
   <stop offset="1" style="stop-color:#000000;stop-opacity:1" id="stop4193-8"/>
  </linearGradient>
  <linearGradient gradientTransform="matrix(0,-74.982803,-74.982803,0,298.0083,464.77588)" id="linearGradient5737" y1="0" x1="0" y2="0" x2="1" gradientUnits="userSpaceOnUse">
   <stop offset="0" style="stop-color:#ffffff;stop-opacity:1" id="stop4249-1"/>
   <stop offset="1" style="stop-color:#ffffff;stop-opacity:1" id="stop4251-5"/>
  </linearGradient>
  <linearGradient gradientTransform="matrix(0,-79.244629,-79.244629,0,298.0083,460.06738)" id="linearGradient5739" y1="0" x1="0" y2="0" x2="1" gradientUnits="userSpaceOnUse">
   <stop offset="0" style="stop-color:#ffffff;stop-opacity:1" id="stop4307-5"/>
   <stop offset="1" style="stop-color:#ffffff;stop-opacity:1" id="stop4309-4"/>
  </linearGradient>
  <linearGradient gradientTransform="matrix(0,-79.244629,-79.244629,0,298.0083,460.06738)" id="linearGradient5928" y1="0" x1="0" y2="0" x2="1" gradientUnits="userSpaceOnUse">
   <stop offset="0" style="stop-color:#ffffff;stop-opacity:1" id="stop4307-5"/>
   <stop offset="1" style="stop-color:#ffffff;stop-opacity:1" id="stop4309-4"/>
  </linearGradient>
  <linearGradient gradientTransform="matrix(0,-74.982803,-74.982803,0,298.0083,464.77588)" id="linearGradient5940" y1="0" x1="0" y2="0" x2="1" gradientUnits="userSpaceOnUse">
   <stop offset="0" style="stop-color:#ffffff;stop-opacity:1" id="stop4249-1"/>
   <stop offset="1" style="stop-color:#ffffff;stop-opacity:1" id="stop4251-5"/>
  </linearGradient>
  <linearGradient gradientTransform="matrix(0,-80.694397,-80.694397,0,298.0083,460.85986)" id="linearGradient5952" y1="0" x1="0" y2="0" x2="1" gradientUnits="userSpaceOnUse">
   <stop offset="0" style="stop-color:#000000;stop-opacity:1" id="stop4191-7"/>
   <stop offset="1" style="stop-color:#000000;stop-opacity:1" id="stop4193-8"/>
  </linearGradient>
  <linearGradient gradientTransform="matrix(0,-74.982803,-74.982803,0,298.0083,464.77588)" id="linearGradient6110" y1="0" x1="0" y2="0" x2="1" gradientUnits="userSpaceOnUse">
   <stop offset="0" style="stop-color:#ffffff;stop-opacity:1" id="stop4249-1"/>
   <stop offset="1" style="stop-color:#ffffff;stop-opacity:1" id="stop4251-5"/>
  </linearGradient>
  <linearGradient gradientTransform="matrix(0,-79.244629,-79.244629,0,298.0083,460.06738)" id="linearGradient6612" y1="0" x1="0" y2="0" x2="1" gradientUnits="userSpaceOnUse">
   <stop offset="0" style="stop-color:#ffffff;stop-opacity:1" id="stop6614"/>
   <stop offset="1" style="stop-color:#ffffff;stop-opacity:1" id="stop6616"/>
  </linearGradient>
  <linearGradient gradientTransform="matrix(0,-79.244629,-79.244629,0,298.0083,460.06738)" id="linearGradient6594" y1="0" x1="0" y2="0" x2="1" gradientUnits="userSpaceOnUse">
   <stop offset="0" style="stop-color:#ffffff;stop-opacity:1" id="stop6596"/>
   <stop offset="1" style="stop-color:#ffffff;stop-opacity:0" id="stop6598"/>
  </linearGradient>
  <linearGradient gradientTransform="matrix(0,-74.982803,-74.982803,0,298.0083,464.77588)" id="linearGradient6554" y1="0" x1="0" y2="0" x2="1" gradientUnits="userSpaceOnUse">
   <stop offset="0" style="stop-color:#ffffff;stop-opacity:1" id="stop6556"/>
   <stop offset="1" style="stop-color:#ffffff;stop-opacity:1" id="stop6558"/>
  </linearGradient>
  <linearGradient gradientTransform="matrix(0,-74.982803,-74.982803,0,298.0083,464.77588)" id="linearGradient6536" y1="0" x1="0" y2="0" x2="1" gradientUnits="userSpaceOnUse">
   <stop offset="0" style="stop-color:#ffffff;stop-opacity:1" id="stop6538"/>
   <stop offset="1" style="stop-color:#ffffff;stop-opacity:0.17999542" id="stop6540"/>
  </linearGradient>
  <linearGradient gradientTransform="matrix(0,-80.694397,-80.694397,0,298.0083,460.85986)" id="linearGradient6496" y1="0" x1="0" y2="0" x2="1" gradientUnits="userSpaceOnUse">
   <stop offset="0" style="stop-color:#000000;stop-opacity:1" id="stop6498"/>
   <stop offset="1" style="stop-color:#000000;stop-opacity:1" id="stop6500"/>
  </linearGradient>
  <linearGradient gradientTransform="matrix(0,-80.694397,-80.694397,0,298.0083,460.85986)" id="linearGradient6478" y1="0" x1="0" y2="0" x2="1" gradientUnits="userSpaceOnUse">
   <stop offset="0" style="stop-color:#ffffff;stop-opacity:0" id="stop6480"/>
   <stop offset="1" style="stop-color:#ffffff;stop-opacity:1" id="stop6482"/>
  </linearGradient>
 </defs>
 <linearGradient id="RED_x2F_ORANGE_5_2_" y1="8.0107002" x1="47.9995" y2="87.9897" x2="47.9995" gradientUnits="userSpaceOnUse">
  <stop offset="0" style="stop-color:#ffdb62;stop-opacity:1" id="stop3054"/>
  <stop offset="0.1393" style="stop-color:#fad15c;stop-opacity:1" id="stop3056"/>
  <stop offset="0.3741" style="stop-color:#edb74d;stop-opacity:1" id="stop3058"/>
  <stop offset="0.48480001" style="stop-color:#e6a844;stop-opacity:1" id="stop3060"/>
  <stop offset="1" style="stop-color:#c96b25;stop-opacity:1" id="stop3062"/>
 </linearGradient>
 <g style="display:inline" id="layer5">
  <rect width="96" x="0" y="0" height="96" style="fill:#000000;fill-opacity:0;stroke:none;display:inline" id="rect3119"/>
 </g>
 <g style="display:inline" id="layer4">
  <path style="opacity:0.4" id="SHADOW" d="m 88.023,49 c 0,29.633 -10.364,40 -40,40 -29.635,0 -40,-10.367 -40,-40 0,-29.634 10.366,-40 40,-40 29.636,0 40,10.365 40,40 z"/>
 </g>
 <g style="display:inline" id="layer21">
  <g id="BLUE_BACKGROUNDS">
   <g id="BLUE_4_2_">
    <linearGradient id="BLUE_4_3_" y1="8.0107002" x1="47.9995" y2="87.9897" x2="47.9995" gradientUnits="userSpaceOnUse">
     <stop offset="0.0364" style="stop-color:#4791d9;stop-opacity:1" id="stop4267"/>
     <stop offset="0.24959999" style="stop-color:#4288cf;stop-opacity:1" id="stop4269"/>
     <stop offset="0.61019999" style="stop-color:#366eb5;stop-opacity:1" id="stop4271"/>
     <stop offset="1" style="stop-color:#264c91;stop-opacity:1" id="stop4273"/>
    </linearGradient>
    <path style="fill:url(#linearGradient5094);fill-opacity:1" id="BLUE_4_1_" d="m 8,47.989 c 0,29.633 10.365,40 40,40 29.637,0 40,-10.367 40,-40 C 88,19.004 78.074,8.459 49.909,8.01 H 46.092 C 17.928,8.459 8,19.004 8,47.989 z"/>
    <linearGradient id="HIGHLIGHT_BLU4_1_" y1="8.2559004" x1="47.9995" y2="87.504303" x2="47.9995" gradientUnits="userSpaceOnUse">
     <stop offset="0.0364" style="stop-color:#ffffff;stop-opacity:1" id="stop4277"/>
     <stop offset="0.12899999" style="stop-color:#f5f7fa;stop-opacity:1" id="stop4279"/>
     <stop offset="0.28580001" style="stop-color:#dbe1ed;stop-opacity:1" id="stop4281"/>
     <stop offset="0.4876" style="stop-color:#afbdd7;stop-opacity:1" id="stop4283"/>
     <stop offset="0.72649997" style="stop-color:#738cb8;stop-opacity:1" id="stop4285"/>
     <stop offset="0.99419999" style="stop-color:#284d92;stop-opacity:1" id="stop4287"/>
     <stop offset="1" style="stop-color:#264c91;stop-opacity:1" id="stop4289"/>
    </linearGradient>
    <path style="opacity:0.25;fill:url(#HIGHLIGHT_BLU4_1_)" id="HIGHLIGHT_BLU4" d="M 48,8 C 18.365,8 8,18.365 8,48 8,77.633 18.365,88 48,88 77.637,88 88,77.633 88,48 88,18.365 77.637,8 48,8 z m 0,79.023 C 18.842,87.023 9,77.176 9,48 9,18.824 18.842,8.977 48,8.977 77.158,8.977 87,18.824 87,48 87,77.176 77.158,87.023 48,87.023 z"/>
   </g>
  </g>
 </g>
 <g style="opacity:0.5;display:inline" id="layer7">
  <path style="fill:#000000;fill-opacity:1;stroke:none;display:inline" id="path4774-1" d="m 66.778606,69.833 3.912636,0 c 1.771279,-0.31083 2.953332,-1.352336 3.16591,-3.2324 l -0.02046,-15.159543 c 0.438415,-1.168295 0.956042,-1.091024 1.340014,-1.340014 0.840538,-0.03063 1.206276,-0.482918 1.237722,-1.196806 0.0036,-0.651001 -0.641393,-0.936245 -1.237722,-0.981995 -0.645994,-0.160219 -1.029342,-0.492421 -1.360472,-1.411618 l 0.12275,-14.689003 c -0.131264,-1.747294 -1.13228,-3.273845 -3.191482,-3.621107 l -3.825688,-0.02046 c -0.28999,0.131394 -0.675045,0.257464 -0.818328,0.838786 l -0.02046,1.861699 c 0.201944,0.483938 0.422156,0.599271 0.900161,0.736496 l 2.045822,0 0,14.62763 c 0.286257,1.627142 0.837897,2.060062 1.329785,2.76186 -0.415996,0.688839 -0.800795,0.556282 -1.309326,2.43453 l 0.02046,14.95496 -2.107197,0.04092 c -0.519786,0.153733 -0.850321,0.412607 -0.879703,0.838787 l 0.02046,1.800323 c 0.18672,0.558882 0.436446,0.613719 0.675121,0.756955 z M 66.9313,60.908519 c 0,2.291194 -1.725979,4.148577 -3.855083,4.148577 -2.129103,0 -3.855082,-1.857384 -3.855082,-4.148577 0,-2.291196 1.725979,-4.148577 3.855082,-4.148577 2.129104,0 3.855083,1.857381 3.855083,4.148577 z m -9.784432,4.349044 -19.23073,0 C 29.142878,64.364973 28.26579,53.647342 31.737754,49.156941 27.508689,42.859939 30.680559,33.446314 38.038887,33.117694 l 19.148897,-0.02046 -0.04092,6.955796 -17.594072,-0.06138 c -3.043385,0.391505 -2.936482,5.823439 0.450081,5.64647 l 17.225823,0.02046 -0.08183,7.058087 -18.269194,-0.02046 c -2.191296,0.945122 -2.035601,5.380864 0.69558,5.544178 l 17.61453,0 -0.04092,7.017171 z m -27.925476,4.562183 -3.912635,0 c -1.77128,-0.310828 -2.953333,-1.352336 -3.16591,-3.232398 l 0.02046,-15.159543 c -0.438415,-1.168295 -0.956041,-1.091024 -1.340013,-1.340015 -0.840538,-0.03063 -1.206276,-0.482918 -1.237723,-1.196805 -0.0036,-0.651001 0.641393,-0.936246 1.237723,-0.981996 0.645993,-0.160219 1.029342,-0.49242 1.360471,-1.411617 L 22.061014,31.808368 c 0.131264,-1.747293 1.13228,-3.273845 3.191483,-3.621106 l 3.825688,-0.02046 c 0.289991,0.131395 0.675046,0.257464 0.818329,0.838787 l 0.02046,1.861698 c -0.201946,0.483938 -0.422157,0.599271 -0.900163,0.736496 l -2.045822,0 0,14.62763 c -0.286257,1.627142 -0.837896,2.060062 -1.329785,2.76186 0.415997,0.688839 0.800795,0.556281 1.309326,2.434529 l -0.02046,14.954961 2.107197,0.04092 c 0.519787,0.153734 0.850322,0.412607 0.879705,0.838787 l -0.02046,1.800324 c -0.186719,0.558881 -0.436446,0.613719 -0.675122,0.756954 z"/>
  <g id="g3368">
   <path style="opacity:0.06666703;fill:#000000;fill-opacity:1;stroke:none;display:inline" id="path3370" d="m 38.28125,35.625 c -6.605843,0.420312 -7.496878,9.50434 -3.53125,13.625 -4.870512,4.449473 -2.081055,14.969688 5.34375,13.5 3.652852,-0.697266 16.386627,1.782763 13.59375,-2 -5.584042,-1.106916 -12.666868,2.184535 -17.46875,-1.53125 -3.520793,-3.771414 0.176004,-11.095002 5.656244,-9.025321 3.407597,0.578791 18.532231,-0.150799 9.812513,-2.043562 -5.111575,-1.172079 -13.691828,2.854294 -16.500007,-3.306117 -1.954363,-5.008426 3.679157,-9.077011 8.374966,-7.327187 5.000229,1.196947 17.36498,-1.322626 6.125043,-1.913289 -3.802086,0.0072 -7.604173,0.01448 -11.406259,0.02173 z m 24.5,23.6875 c -4.078109,3.499875 4.464642,4.024907 0.75,0.0625 -0.209221,-0.138484 -0.512906,-0.108561 -0.75,-0.0625 z"/>
   <path style="opacity:0.06666703;fill:#000000;fill-opacity:1;stroke:none;display:inline" id="path3374" d="m 24.65625,30.75 c -1.376574,5.064805 0.331858,11.946107 -0.4375,16.625 1.595343,-4.780816 0.175927,-12.06118 0.4375,-16.625 z m 46.53125,0.875 c 0.863118,5.099475 -1.511681,11.223314 0.75,15.90625 -1.358166,-5.330768 1.245748,-11.851138 -0.75,-16.90625 l 0,1 z m -33.15625,3.65625 c -6.594367,0.615449 -7.718565,9.743724 -3.6875,13.9375 -4.928697,4.583971 -1.847363,15.273332 5.5625,13.875 4.430659,-1.513987 15.032901,3.215789 15.125,-2.6875 -5.866198,-0.945067 -12.777476,1.764805 -18.15625,-1.0625 -3.891698,-3.315562 -0.441452,-10.942455 4.999994,-8.806697 3.55083,-0.06582 17.92863,1.144298 11.15626,-2.728711 -5.337493,-1.156265 -12.524205,2.308409 -16.843754,-1.839592 -3.141962,-4.130916 1.465867,-9.96351 6.374975,-8.112854 3.794418,0.688088 18.351173,-0.08402 9.46878,-2.600381 -4.666668,0.0086 -9.333337,0.01716 -14.000005,0.02573 z m -14.84375,13.75 c 0.04293,-0.05766 -0.103643,-0.03251 0,0 z m 49.5625,0.0625 c 0.20574,-0.02634 0.02634,-0.20574 0,0 z m -1.03125,1.6875 C 70.568747,55.522178 71.263115,63.305498 71.5,67.09375 71.98704,61.984379 71.4925,55.227518 71.71875,50.78125 z m -47.40625,0.25 c 0.501261,5.290279 -0.884036,11.40436 0.46875,16.34375 -0.666896,-5.381409 1.178066,-11.759779 -0.625,-16.71875 l 0.15625,0.375 z m 38.71875,7.875 c -3.465337,0.364298 -0.605163,6.316651 1.5,3.09375 0.647849,-1.23992 -0.0062,-3.113739 -1.5,-3.09375 z"/>
   <path style="opacity:0.06666703;fill:#000000;fill-opacity:1;stroke:none;display:inline" id="path3378" d="m 25.09375,30.0625 c -3.384662,2.474919 -0.04385,8.370798 -1.163982,11.90588 0.719403,2.446886 -0.343467,5.782407 -0.992268,7.31287 2.884239,5.383429 -0.533124,12.644544 1.46875,18.25 1.927588,-1.499898 0.122123,-9.444811 0.75,-13.15625 1.434731,-3.07217 -3.198542,-5.122057 -0.25,-7.4375 0.64122,-5.423302 0.190302,-11.582788 0.1875,-16.875 z M 70.8125,31.625 c 1.158913,5.527877 -2.323489,12.619156 1.65625,17.25 -3.776598,4.894435 -0.578374,11.846296 -1.625,17.53125 0.0085,3.974628 2.492498,-1.817905 1.21875,-2.96875 C 72.188407,58.771694 71.48658,52.22153 73,48.65625 70.065852,43.320526 73.824141,36.117456 71.625,30.5625 70.568421,29.453662 70.801532,30.468893 70.8125,31.625 z m -32.625,3.28125 c -6.879087,0.383695 -8.389325,9.831287 -4.28125,14.3125 -4.927827,4.832514 -1.55396,15.737079 6.125,14.25 4.590925,-1.537573 15.56643,3.36774 15.371022,-2.999876 -5.085664,-1.82675 -12.757261,1.337838 -18.214772,-1.312624 -3.745666,-3.069792 -0.51429,-10.405409 4.687495,-8.244318 4.01742,-0.593167 16.88205,2.198948 12.531257,-3.47646 C 48.806181,46.464658 42.047966,49.206226 37,46.3125 c -3.829617,-3.545129 0.551317,-10.186711 5.562477,-8.081892 3.938145,0.391467 17.842851,0.650469 10.843776,-3.351978 -5.072917,0.0092 -10.145835,0.01841 -15.218753,0.02762 z M 62.84375,58.5625 C 58.562254,59.41674 62.929131,66.332766 65,61.75 65.571293,60.385786 64.512775,58.347499 62.84375,58.5625 z"/>
   <path style="opacity:0.06666703;fill:#000000;fill-opacity:1;stroke:none;display:inline" id="path3382" d="m 25.34375,29.625 c -4.143053,1.712184 -0.695493,8.02042 -1.7665,11.312168 -0.01799,2.654398 0.76916,6.591348 -1.51475,8.156582 3.67691,3.486654 0.449682,9.863526 1.53125,14.34375 -1.261338,3.424266 1.404185,6.297672 4.875,4.9375 -5.61146,-0.177352 -1.926146,-9.392213 -2.96875,-14 0.921818,-3.27929 -2.561319,-5.113275 -0.09375,-7.6875 0.295455,-5.479428 0.04037,-11.026113 0.125,-16.53125 3.826153,0.358623 3.792854,-0.895105 -0.1875,-0.53125 z m 42.1875,0.5625 c 6.19512,-0.403453 1.459381,10.123952 2.9375,14.4375 -0.407972,2.752392 2.462265,4.426455 0.125,6.65625 -0.941729,5.110769 1.382164,13.075703 -1.093503,16.553467 -5.23143,0.0513 3.227008,2.052134 2.906003,-1.365967 0.823322,-5.48419 -1.536076,-11.930502 0.9375,-16.9375 1.49154,-0.872865 -2.744834,-2.885518 -0.951729,-5.031178 C 71.395734,39.963493 74.335359,33.910415 71.53125,30 c -0.947602,-0.611163 -4.145252,-0.948062 -4,0.1875 z m -29.375,4.375 c -6.959742,0.319128 -8.857654,10.011234 -4.6875,14.65625 -4.90663,5.080041 -1.347858,16.087219 6.5625,14.59375 4.747564,-1.492869 15.730242,3.29679 15.710227,-2.999914 C 52.706861,58.096979 44.51249,60.502187 39.5625,59.6875 34.088038,59.473227 35.229729,49.508294 40.874997,51.253711 45.691428,49.775759 57.028814,54.929109 55.778445,47.281695 50.143105,45.960146 42.794136,48.797324 37.28125,46.125 33.669457,42.756211 37.796339,36.526811 42.562478,38.574105 46.939232,37.20718 57.577095,42.173795 55.75,34.53125 49.885417,34.541667 44.020833,34.552083 38.15625,34.5625 z M 62.8125,58.21875 c -4.28137,0.540257 -1.224015,7.969086 2.03125,4.5625 1.449062,-1.705632 0.359507,-4.826414 -2.03125,-4.5625 z"/>
   <path style="opacity:0.06666703;fill:#000000;fill-opacity:1;stroke:none;display:inline" id="path3386" d="m 25.375,29.25 c -4.832835,1.773737 -1.011326,8.948407 -2.16435,12.655883 1.067187,2.401178 -0.29299,6.977431 -2.14815,7.125367 4.763112,2.194147 0.928884,9.413846 2.15625,13.40625 -0.951954,3.025682 0.219052,7.580427 4.28125,6.3125 3.264385,-1.102317 -5.204235,-2.691913 -1.625,-8.375 -0.481454,-3.793562 1.277753,-8.356687 -1.5,-11.46875 3.697174,-4.776225 0.441168,-11.754185 1.53125,-17.3125 C 26.193459,30.241369 33.272401,29.339834 25.375,29.25 z m 41.78125,0.03125 c 4.108795,1.025029 2.935457,7.249455 2.9375,12.34375 -1.068629,3.046821 0.976703,5.980024 1,8.21875 -2.537414,5.17927 -0.130632,11.934399 -0.96875,17.625 -5.270627,-0.867461 -2.072426,2.596767 1.1875,1.09375 C 75.058113,65.790394 71.595607,59.439002 72.78125,55.5 71.929362,53.196154 73.016855,49.171936 75,49 70.255697,47.107683 73.918502,40.241485 72.83565,36.500367 73.535914,33.529807 73.190843,27.962591 68.625,29.25 c 0.116715,0.585262 -1.328824,-0.313279 -1.46875,0.03125 z M 38.125,34.1875 c -7.1453,0.310903 -9.244723,10.168286 -5.09375,15 -4.873806,5.406361 -1.083307,16.384821 6.96875,15 4.724452,-1.315202 14.699925,2.654385 16.10657,-1.999959 C 55.908877,56.132473 44.958594,60.76129 40.125,59.3125 34.709869,59.939756 35.300303,49.866788 40.874997,51.62863 45.411885,50.081231 56.373859,55.052584 56.131722,48.65649 54.461196,44.347142 44.881799,47.832095 40,46.6875 c -5.213762,0.408847 -4.626573,-8.832607 0.562493,-7.746219 4.67452,-1.494659 15.660626,3.387184 15.550611,-2.941219 -2.107373,-4.14336 -11.829523,-0.707766 -16.988078,-1.814298 l -0.999999,0.0017 -2.7e-5,0 z m 24.75,23.65625 c -4.612566,0.401425 -2.194365,8.306867 1.71875,5.625 2.3266,-1.529487 1.243001,-5.859263 -1.71875,-5.625 z"/>
   <path style="opacity:0.06666703;fill:#000000;fill-opacity:1;stroke:none;display:inline" id="path3390" d="m 25.3125,28.90625 c -4.617751,1.259253 -1.710011,7.465391 -2.464097,10.825605 -0.2084,3.035504 1.443456,8.408157 -2.535903,9.174395 0.830776,0.83746 3.115334,1.222903 2.5625,3.245536 0.490744,5.198302 -0.889878,10.817166 0.5,15.816964 1.287743,1.71449 4.136929,1.179831 5.8125,0.96875 0.527943,-3.551762 -5.218266,-1.003482 -2.96875,-6.133928 -0.720085,-4.505951 1.577082,-10.077711 -1.40625,-13.866072 3.211878,-3.869908 0.593896,-9.601491 1.4375,-14.178571 -0.545039,-2.901145 -0.03806,-4.576167 2.9375,-4.040179 1.042162,-3.093039 -2.213804,-1.429588 -3.875,-1.8125 z m 41.65625,0.03125 c -1.357165,2.363976 1.159932,2.266142 2.78125,1.96875 0.392257,5.510737 -0.752865,11.357838 0.5,16.6875 2.09461,1.922365 -1.768863,3.559654 -0.46875,6.111607 0,4.473214 0,8.946429 0,13.419643 -1.616715,-0.436978 -4.175726,-0.106016 -2.78125,2 2.79137,0.786132 7.078491,-0.294242 6.125,-4.022321 C 73.536834,60.259438 72.361055,55.011754 73.59375,50.375 73.959099,49.551814 76.972648,49.087835 74.9375,48.59375 71.218552,47.048129 73.94024,41.675741 73.160903,38.643145 72.804596,35.58385 74.966281,28.973434 69.973214,28.90625 68.986366,28.94543 67.93094,28.841 66.96875,28.9375 z m -28.875,4.90625 c -7.34377,0.350073 -9.646329,10.264992 -5.46875,15.34375 -4.76173,5.425691 -1.101679,16.318349 6.772321,15.34375 5.68006,0 11.360119,0 17.040179,0 1.96253,-6.399719 -2.963369,-5.949599 -7.825892,-5.5625 C 45.04992,58.065089 39.606351,60.882058 37.125,57.375 c -1.696561,-2.868098 1.049322,-6.947696 4.607138,-5.401166 4.901787,0.0087 9.803575,0.01744 14.705362,0.02617 1.979037,-6.398065 -2.875101,-6.051245 -7.794628,-5.639881 -3.566729,-0.864331 -8.956249,1.790066 -11.486622,-1.547619 -1.825807,-2.894528 1.156269,-6.769257 4.549092,-5.523314 4.91072,0.01819 9.821439,0.03638 14.732158,0.05456 1.971966,-6.401836 -2.990622,-5.896448 -7.825881,-5.517888 -3.505956,0.006 -7.011913,0.01192 -10.517869,0.01789 z M 62.8125,57.5 c -4.443038,0.284771 -3.220568,8.130652 1.15625,6.6875 3.519262,-1.075197 2.65299,-7.015679 -1.15625,-6.6875 z"/>
   <path style="opacity:0.06666703;fill:#000000;fill-opacity:1;stroke:none;display:inline" id="path3394" d="m 25.34375,28.53125 c -2.970368,0.352277 -3.255031,3.811852 -2.913133,6.169539 -0.08921,4.072983 0.307489,8.25811 -0.05562,12.267961 -0.03923,1.561381 -2.774972,0.811658 -2.34375,2.3125 0.722753,0.744244 2.422453,0.644291 2.46875,2.15625 0.09187,5.231841 -0.17832,10.519004 0.125,15.71875 0.733748,2.905779 4.545676,2.485219 6.71875,2.15625 0.52264,-0.878367 0.528975,-3.047302 -1.151426,-2.553914 C 25.313295,67.363459 27.074237,63.464117 26.59375,61.732144 26.376834,57.996702 27.035818,54.103471 26.25,50.46875 25.259547,49.443098 25.195534,48.57135 26.21875,47.5 27.170765,44.225609 26.353108,40.624223 26.625,37.22768 27.045147,35.421636 25.753506,31.903804 27.325893,31.25 28.785749,31.634079 30.185977,31.070351 29.5625,29.321429 29.42427,27.61913 26.516914,28.917392 25.34375,28.53125 z m 41.5,0.09375 c -0.845617,0.432867 -0.780205,3.314867 0.964286,2.65625 2.846754,-0.662231 1.08019,3.288857 1.566964,4.986606 0.254154,3.711116 -0.507473,7.592157 0.375,11.200894 1.093222,1.08099 1.018052,2.012002 -0.03125,3.0625 -0.718617,4.403161 -0.111942,9.015262 -0.3125,13.499998 0.552587,2.41674 -0.425163,3.045189 -2.65625,2.875002 C 65.90826,67.70942 66.265626,70.264935 68.008928,69.5 70.20962,69.904801 73.354642,69.27554 73.5,66.5625 73.614543,61.366659 73.277536,56.080507 73.65625,50.9375 73.874456,49.581116 76.670729,50.038811 75.875,48.5 74.313642,48.364449 72.916624,46.838041 73.480934,45.071481 73.348135,40.298027 73.897578,35.450482 73.375,30.71875 72.385576,27.949065 69.159734,28.459345 66.84375,28.625 z M 38.0625,33.46875 c -6.246697,0.194387 -9.393082,7.793223 -7.21875,13.09375 0.516778,1.495957 1.904177,2.671245 0.434031,4.006938 -2.688884,5.193327 -0.426893,13.254113 5.909719,14.243062 6.526121,0.222151 13.086113,0.02876 19.625,0.09375 -0.235087,-1.978335 0.510415,-4.932417 -0.325893,-6.3125 -5.914281,-0.117384 -11.886683,0.226464 -17.767857,-0.15625 -2.857809,-1.178394 -1.986087,-7.000598 1.584819,-6.091261 5.502977,0.0096 11.005954,0.01917 16.508931,0.02876 -0.218912,-2.005922 0.525869,-4.964368 -0.294642,-6.375661 -5.928939,-0.149217 -11.958375,0.245223 -17.830358,-0.218089 -3.071997,-1.377043 -1.621154,-7.043992 1.946421,-6.121118 5.39286,0.01954 10.785719,0.03908 16.178579,0.05862 -0.238225,-1.964386 0.514787,-4.916733 -0.325892,-6.280656 -6.14137,0.01022 -12.282739,0.02044 -18.424108,0.03066 z M 62.75,57.125 c -3.782138,0.322863 -4.283844,6.372181 -0.6875,7.40625 C 65.721487,65.836008 68.259024,60.214837 65.28125,58 64.637719,57.344236 63.658266,57.016514 62.75,57.125 z"/>
   <path style="opacity:0.06666703;fill:#000000;fill-opacity:1;stroke:none;display:inline" id="path3398" d="m 25.25,28.09375 c -1.786858,0.226151 -3.19418,1.775628 -3.268107,3.574179 0.0084,4.942842 0.07991,9.888242 0.111857,14.832071 -0.233334,0.752574 -0.798969,1.303287 -1.627402,1.371222 -0.830116,0.07408 -1.238412,1.027971 -0.778848,1.722528 0.261962,0.634049 1.06237,0.482771 1.5625,0.8125 0.628488,0.2603 0.928939,1.104196 0.8125,1.8625 0.02082,4.899528 -0.04165,9.802834 0.03125,14.7 0.242497,1.385948 1.28744,2.495917 2.657368,2.812873 1.223598,0.275766 2.511891,0.05268 3.761382,0.124627 0.611785,0.108332 1.288606,-0.09114 1.438471,-0.714443 0.08971,-0.702688 0.07132,-1.480677 0.01189,-2.190905 -0.459253,-0.943307 -1.749162,-0.608604 -2.630782,-0.710251 -0.645723,0.02554 -0.142001,-1.063018 -0.300829,-1.509401 -0.01929,-4.488835 0.03849,-8.988983 -0.02874,-13.470783 -0.195505,-0.828591 -0.507485,-1.599934 -1.158765,-2.154217 -0.05162,-0.4097 0.600896,-0.89519 0.768656,-1.388369 0.745066,-1.54163 0.353356,-3.298864 0.450094,-4.949131 0,-3.710417 0,-7.420833 0,-11.13125 0.846996,-0.08579 1.790859,0.20587 2.5625,-0.21875 0.639226,-0.508712 0.285986,-1.464585 0.375,-2.19375 0.08963,-0.866138 -0.823167,-1.395277 -1.606227,-1.206809 -1.047924,0.0085 -2.095849,0.01704 -3.143773,0.02556 z M 66.65625,28.1875 C 65.919888,28.441216 65.953883,29.349141 66,30.03125 c -0.0716,0.607798 -0.01796,1.345335 0.625,1.5625 0.725438,0.277387 1.547595,0.05255 2.3125,0.125 0.01456,4.885902 -0.02905,9.778189 0.02169,14.660119 0.144591,0.987171 0.61471,1.870786 1.25956,2.621131 -0.290669,0.536213 -0.930921,0.996948 -1.040785,1.720447 -0.418202,1.153381 -0.119448,2.414507 -0.209215,3.617053 0,3.991667 0,7.983333 0,11.975 -0.893341,0.11483 -1.998466,-0.236286 -2.71875,0.375 -0.507944,0.596114 -0.137343,1.474276 -0.25,2.19375 -0.01126,0.664638 0.610165,1.220029 1.28125,1.05625 1.288491,-0.06048 2.605613,0.122862 3.876118,-0.09412 1.625187,-0.352435 2.867111,-1.858608 2.780132,-3.549627 0,-4.952083 0,-9.904167 0,-14.85625 0.275753,-0.794751 0.937226,-1.236248 1.756529,-1.329757 C 76.593488,49.903344 76.838365,48.312847 75.875,48 75.330644,47.779699 74.637075,47.813146 74.28125,47.25 74.012369,46.909725 73.804571,46.293135 73.91222,45.768775 73.93016,41.002612 74.039026,36.232338 74,31.46875 c -0.181603,-1.905965 -1.901634,-3.517035 -3.85,-3.375 -1.11919,0.02831 -2.261356,-0.05532 -3.366915,0.03939 l -0.09191,0.03939 -0.03492,0.01497 z m -28.625,4.84375 c -2.205297,0.08523 -4.360924,1.062635 -5.755986,2.776138 -1.660922,1.792051 -2.452321,4.319021 -2.517797,6.754546 -0.06212,2.317116 0.576194,4.667396 1.867533,6.594316 -1.514364,2.013097 -1.986506,4.665495 -1.845149,7.142261 0.158459,2.725605 1.261136,5.463533 3.407649,7.201489 1.645626,1.343478 3.882124,1.991913 6.01875,1.84375 6.014583,0 12.029167,0 18.04375,0 0.0094,-2.395836 0.02181,-4.791664 0.03125,-7.1875 C 51.309677,58.13735 45.332732,58.19402 39.36451,58.12797 37.900353,57.91482 37.257655,56.186526 37.5,54.8125 c 0.219674,-0.886613 0.620206,-1.679863 1.40625,-2.03125 6.114583,0.01036 12.229166,0.02116 18.34375,0.03125 0.0189,-2.416675 0.04361,-4.833325 0.0625,-7.25 -5.940842,-0.02466 -11.884975,0.0069 -17.823777,-0.05334 -0.810749,-0.08561 -1.43063,-0.603421 -1.738723,-1.290414 -0.708602,-1.469961 -0.11909,-3.636646 1.5625,-4.09375 5.412746,-0.05575 10.833914,0.02776 16.249899,0.02559 0.511357,-0.114345 1.494215,0.246166 1.688049,-0.188087 0.01013,-2.320834 0.02138,-4.641665 0.0308,-6.962501 -6.416667,0.01011 -12.833333,0.02088 -19.25,0.03125 z M 62.6875,56.6875 c -2.033302,0.182621 -3.525062,2.088084 -3.552624,4.080488 -0.09511,2.047828 1.340474,4.107529 3.442292,4.343832 2.158808,0.325513 4.197782,-1.429383 4.390743,-3.559494 0.31809,-1.904413 -0.745927,-3.963677 -2.556234,-4.635087 C 63.877003,56.698987 63.261747,56.621244 62.6875,56.6875 z"/>
   <path style="opacity:0.06666703;fill:#000000;fill-opacity:1;stroke:none;display:inline" id="path3402" d="m 25.25,27.84375 c -3.139609,0.28415 -3.9915,3.810933 -3.509792,6.468658 -0.115547,4.192531 0.3746,8.50889 -0.115208,12.625092 -0.660488,0.922761 -2.797164,0.644905 -2.34375,2.3125 0.159382,1.594317 2.752651,0.808016 2.53125,2.669643 0.09501,5.134686 -0.182673,10.315315 0.125,15.424107 0.795185,3.364882 4.998045,3.037888 7.65625,2.6875 1.265166,-0.963954 1.113186,-4.174357 -0.919415,-3.950247 -2.686068,0.341477 -0.858988,-3.671887 -1.393085,-5.406897 -0.255088,-3.471266 0.50992,-7.126422 -0.375,-10.486606 -0.719962,-0.900133 -0.901031,-1.484019 -0.03125,-2.40625 1.022859,-3.340985 0.147224,-7.023706 0.4375,-10.491073 0.529941,-1.730475 -1.298875,-5.819708 1.428572,-5.352677 2.023585,0.197158 2.141026,-3.258183 0.727678,-3.96875 -1.264161,-0.40044 -2.871432,-0.0019 -4.21875,-0.125 z m 41.28125,0.09375 c -1.547004,0.894962 -1.178551,4.59539 1.151786,4.03125 2.12906,0.110523 0.488951,3.990216 1.004464,5.714287 0.27329,3.36061 -0.561518,6.923442 0.4375,10.160713 1.268867,1.017716 0.19462,1.721698 -0.21875,2.84375 -0.451379,5.067925 -0.05245,10.260648 -0.1875,15.375 -1.550492,-0.386111 -3.617471,0.316815 -2.96875,2.290179 -0.41505,2.50765 2.720437,1.788525 4.245536,1.834821 2.884768,0.328219 4.852854,-2.717951 4.191964,-5.379465 0.10847,-4.526745 -0.214198,-9.15588 0.15625,-13.620535 0.709109,-1.023926 2.862112,-0.800815 2.375,-2.625 -0.403603,-1.374345 -2.836286,-0.65695 -2.559435,-2.54463 -0.07458,-5.073401 0.318916,-10.186718 -0.03432,-15.23662 -0.659838,-2.921495 -4.048595,-3.28255 -6.589286,-2.9375 -0.328527,0.05052 -0.704505,-0.0969 -1.004464,0.09375 z m -28.5,4.84375 c -6.337978,0.111119 -9.822719,7.450129 -8.167278,13.034931 0.01597,1.634103 2.221176,3.029126 0.788809,4.409507 C 27.774654,55.844493 30.228052,64.50379 37.0625,65.5 c 6.799206,0.225756 13.627526,0.02612 20.4375,0.09375 0.0068,-2.562508 0.02445,-5.124992 0.03125,-7.6875 -6.14639,-0.114507 -12.437419,0.222383 -18.5,-0.15625 -2.282528,-0.933787 -1.495246,-5.574362 1.36607,-4.716295 5.700893,0.0094 11.401786,0.02038 17.10268,0.0288 0.03491,-2.582877 0.0067,-5.169492 0.09375,-7.75 C 51.407042,45.189914 45.139916,45.509881 39,45.125 c -2.412215,-1.093805 -1.196999,-5.614533 1.665172,-4.777437 5.61161,0.01913 11.223214,0.0416 16.834828,0.05869 0.0068,-2.552091 0.02448,-5.104159 0.03125,-7.65625 -6.500001,0.0093 -13,0.02102 -19.5,0.03125 z m 24.625,23.65625 c -4.330871,0.285668 -5.107412,7.105708 -1.21875,8.625 3.30343,1.569385 6.838595,-2.175049 5.65625,-5.46875 -0.48452,-1.940541 -2.403052,-3.410412 -4.4375,-3.15625 z"/>
   <path style="opacity:0.06666703;fill:#000000;fill-opacity:1;stroke:none;display:inline" id="path3406" d="m 25.25,27.46875 c -5.111932,0.72486 -3.950481,7.155873 -3.851189,10.772086 -0.631843,2.735248 1.231597,6.709518 -0.555061,8.915414 -2.945144,0.08119 -2.099719,3.873149 0.28125,3.9375 1.138381,5.428102 -0.632127,11.64432 0.75,17.125 1.461154,2.840734 6.146075,3.190507 8.46875,1.59375 1.206664,-1.971948 -0.110625,-4.93155 -2.6875,-4.125 -0.597782,-5.379549 1.180938,-11.365527 -0.84375,-16.40625 -0.147122,-1.275175 1.715822,-3.387287 0.875,-5.205357 0.856028,-3.51302 -1.742576,-10.480672 1.34375,-11.763393 2.981775,-0.395074 1.861291,-6.20473 -1.366024,-4.863386 -0.805076,0.0065 -1.610151,0.01309 -2.415226,0.01964 z m 41.375,0.0625 c -2.514556,0.922186 -1.424539,5.997072 1.6875,4.8125 0.555388,5.251077 -1.072715,11.080923 0.71875,16.03125 0.804778,1.433284 -1.76423,3.277553 -0.6875,5.205357 -0.81639,3.69612 1.696428,10.646643 -1.375,12.138393 -3.237281,0.578285 -1.572435,6.753175 1.955357,4.84375 3.966687,0.886311 6.740051,-3.182763 5.638393,-6.825893 C 74.987115,59.588295 73.796116,54.827039 75,50.96875 c 2.612076,0.0061 2.779528,-3.925377 0.0625,-3.84375 -1.43114,-3.294924 0.03583,-7.738817 -0.439678,-11.401396 0.978414,-3.652347 -0.634798,-9.046186 -5.301394,-8.254854 -0.881951,0.07523 -1.843092,-0.128675 -2.696428,0.0625 z m -28.59375,4.875 c -8.072555,0.20703 -11.1562,10.84657 -7.1875,16.78125 -4.285666,6.221363 -0.46191,17.108243 7.776786,16.78125 6.418155,0 12.836309,0 19.254464,0 -0.842318,-2.916772 2.365115,-9.857234 -2.830357,-8.4375 C 49.680702,57.193916 43.941872,58.137819 38.75,57.1875 37.115851,55.604433 38.559425,52.094522 41.174104,53.409945 46.74107,53.418671 52.308033,53.430857 57.875,53.4375 57.02913,50.508846 60.297143,43.526243 55.075896,44.933611 49.701374,44.531063 43.884536,45.623682 38.71875,44.5 c -1.862276,-1.891617 0.499285,-5.12579 3.080344,-3.773597 5.358637,0.01735 10.717261,0.04181 16.075906,0.05485 -0.836938,-2.910105 2.356953,-9.831913 -2.830355,-8.402754 -5.671131,0.0093 -11.342263,0.0185 -17.013395,0.02775 z M 62.625,56.0625 c -5.383356,0.416503 -5.337742,9.31037 0,9.6875 6.58293,0.450681 6.663128,-10.068741 0,-9.6875 z"/>
   <path style="opacity:0.06666703;fill:#000000;fill-opacity:1;stroke:none;display:inline" id="path3410" d="m 25.25,27.125 c -6.390841,0.992807 -3.845075,9.37105 -4.172081,13.687163 -0.19371,2.595877 1.354108,6.226658 -2.015419,6.750337 -1.667209,1.837297 0.67506,3.429401 2.03125,4.09375 0.977169,5.726409 -1.852978,12.573287 1.15625,17.75 C 25.08341,72.509908 33.827448,71.545333 30.40625,66 28.715463,64.958078 27.004413,65.376461 28,62.34375 c 0.03838,-4.498548 0.260995,-9.963589 -0.6875,-13.875 1.86832,-4.926547 0.109063,-10.631221 0.71875,-15.8125 4.601539,1.04145 3.647699,-7.687896 -0.937434,-5.54624 L 26.093849,27.11811 25.25,27.125 z m 41.21875,0.0625 c -2.683003,0.997028 -1.814649,6.425148 1.5,5.5 0.205105,5.369938 -0.622992,11.972321 0.75,16.6875 -1.735874,3.099275 -0.183346,9.467499 -0.75,10.9375 -0.12662,-5.371001 -8.575316,-6.292537 -9.59375,-0.875 0.876549,-4.180243 -8.395983,-1.535255 -12.1875,-2.25 -2.360692,-0.153309 -9.249908,1.618433 -7.4375,-2.96875 5.534531,-1.274202 12.431062,0.0041 18.40625,-0.4375 1.795789,-1.329835 3.194273,-12.0074 -2.937495,-9.192945 C 49.290345,43.9038 43.233747,45.722683 38.75,44.03125 36.967323,39.677505 43.370564,41.049505 45.687462,41.083967 49.900589,39.776384 60.180411,44.578828 58.232203,37.06253 60.889411,28.735641 50.868546,33.051473 46.187515,32.049195 40.105402,31.345567 31.615119,31.508276 29.5,38.59375 c -1.659162,3.595069 -0.09443,7.840232 0.65625,11 -4.152147,6.998688 0.924883,18.057966 9.75,16.71875 6.104167,0 12.208333,0 18.3125,0 0.150025,-2.157839 -0.520233,-6.261323 0.75,-2.53125 2.30629,4.351529 9.398597,1.980149 9.03125,-2.8125 0.442771,2.989994 0.20114,4.227259 -2.3125,4.9375 -2.383251,2.705304 0.605587,6.761623 4.09375,5 5.525016,0.512966 5.95032,-6.463378 5.125,-10.3125 1.14332,-2.879608 -2.380046,-9.114146 1.78125,-9.9375 C 78.768231,48.795513 76.388798,47.003203 74.875,46.3125 73.816697,40.622397 77.132105,33.462479 73.59375,28.5 c -1.773211,-1.997252 -4.776433,-1.320721 -7.125,-1.3125 z"/>
   <path style="opacity:0.06666703;fill:#000000;fill-opacity:1;stroke:none;display:inline" id="path3414" d="m 25.25,26.75 c -6.612591,0.963301 -4.392865,9.540716 -4.546912,14.062161 -0.144835,2.70703 1.309865,6.000052 -2.015588,6.594089 -1.420322,1.669533 0.218972,4.08795 2.03125,4.28125 1.108113,5.82611 -2.177633,13.158224 1.5,18.1875 3.15154,2.912379 11.584122,2.089746 8.78125,-3.75 -1.997625,-1.525984 -3.527168,-1.828074 -2.625,-5.15625 0.3013,-4.18597 -0.1556,-9.083781 -0.53125,-12.71875 1.078508,-1.844955 0.209832,-6.652604 0.90625,-2.53125 1.551938,2.692625 0.784463,4.732817 -0.15625,7.5 -1.775096,7.262935 4.663782,15.013684 12.3125,13.46875 5.895833,0 11.791667,0 17.6875,0 -0.31067,-3.021637 -0.108103,-3.001113 1.53125,-1.125 1.144481,1.476582 4.603975,0.42355 4.6875,0.9375 -2.547192,7.252023 10.699597,6.221743 10.46875,0.09375 0.403504,-4.842811 -0.707776,-10.762098 0.375,-15.125 3.351318,-0.462077 2.28583,-5.048887 -0.40625,-5.1875 -1.140806,-5.843988 2.536244,-13.433849 -1.6875,-18.34375 -3.263837,-2.795967 -11.542405,-1.647057 -8.4375,4.125 2.071738,1.342838 3.216201,1.826858 2.46875,5 -0.08346,4.048356 -0.20324,8.825106 0.65625,12.375 -1.395879,2.456045 -0.08062,6.832804 -0.8125,8.34375 -1.802413,-3.26465 -7.088209,-3.21569 -8.8125,0.125 C 55.489958,55.197542 47.192731,57.651019 42.1875,56.8125 39.878734,58.067754 37.815804,56.018666 39.25,54.125 c 6.437501,0.0097 12.874996,0.02565 19.3125,0.03125 0.301917,-5.657652 1.71046,-12.523525 -6.343742,-9.946574 C 48.03874,43.530616 42.616794,45.353978 38.9375,43.625 c -0.905943,-4.58918 6.397921,-1.152514 8.687449,-2.15898 5.695729,-0.08646 13.742273,2.194579 10.991222,-6.40347 0.96985,-6.901734 -10.004392,-1.874527 -14.428654,-3.385093 -6.297389,-1.26763 -14.196675,1.075458 -15.437517,8.166293 -0.746008,6.260469 -0.156545,-3.916403 -0.34375,-6.1875 2.447849,-0.144577 4.668214,-5.120224 1.40625,-6.75 C 28.442476,26.397185 26.714734,26.912867 25.25,26.75 z M 67.625,65 c -2.688978,1.474811 1.422418,-3.231083 0,0 z"/>
   <path style="opacity:0.06666703;fill:#000000;fill-opacity:1;stroke:none;display:inline" id="path3418" d="m 25.25,26.40625 c -6.455152,0.707971 -5.106976,8.948178 -4.898884,13.405945 -0.334916,2.812472 1.467778,6.463401 -1.944866,7.375305 -1.401223,1.645563 -0.178758,4.524941 1.96875,4.6875 1.153961,5.89665 -2.354558,13.490059 1.78125,18.4375 3.409599,2.732687 11.711205,2.069773 9.34375,-4 -1.105902,-2.08598 -4.171439,-1.34852 -2.78125,-4.65625 -0.331727,-3.890942 1.520836,2.641901 3.5,3.25 6.85879,4.595796 15.961014,0.979441 23.6875,2.125 3.725732,1.586289 1.969598,-3.714047 4.53125,-0.875 1.94734,1.419252 5.434648,-0.798225 3.875,3.3125 2.425203,4.885432 12.42884,2.038723 11.3125,-3.875 0.24155,-4.488027 -0.447893,-9.701772 0.28125,-13.8125 3.157028,-0.435174 2.891775,-5.533125 -0.3125,-5.625 -1.168874,-5.904052 2.666519,-13.725908 -1.90625,-18.5625 -3.426557,-2.739298 -11.657745,-1.782866 -9.125,4.21875 1.163272,2.004097 4.002689,1.346387 2.6875,4.59375 -0.221966,4.344523 0.04485,9.302916 0.53125,13.21875 -1.435792,1.658744 0.645657,7.662997 -1.09375,6.71875 -2.095515,-2.480093 -6.38416,-0.930121 -7.71875,0.125 -6.390723,-0.348321 -13.644355,0.607792 -19.65625,-0.3125 -1.053996,-3.73977 5.324059,-0.744049 7.124989,-1.675154 5.338344,-0.745953 15.170484,3.058534 12.535408,-5.730939 C 61.297047,40.62092 51.05497,44.920692 46.218768,43.855036 44.503506,43.681913 37.151256,45.228252 39.75,41.78125 c 6.395837,0.01876 12.791644,0.05441 19.1875,0.0625 0.697589,-6.782451 0.937233,-13.107505 -7.749992,-10.521462 -7.175658,0.533356 -17.795141,-2.605144 -21.718758,5.615212 -0.909711,4.507966 -2.083554,-4.474793 0.6875,-3.84375 3.888467,-2.322617 0.470898,-9.079697 -4.062401,-6.694361 L 25.25,26.40625 z M 28.8125,47.25 c 1.522932,1.105071 -0.212995,5.743715 -0.59375,2.34375 -0.776112,-0.492631 0.673161,-3.172684 0.59375,-2.34375 z"/>
   <path style="opacity:0.06666703;fill:#000000;fill-opacity:1;stroke:none;display:inline" id="path3422" d="m 25.21875,26.03125 c -6.129151,0.5814 -5.849571,8.32902 -5.250142,12.812222 C 19.600871,41.931137 21.468819,45.791839 18,47.125 c -2.508578,3.44528 3.479402,4.844333 2,8.03125 0.758845,5.288951 -2.70951,14.661853 4.4375,16.6875 3.966318,1.465798 9.499172,-0.681259 7.40625,-5.65625 C 30.684805,64.561489 27.549419,63.157271 29.3125,62 c 5.012247,8.749755 16.518629,4.399589 24.59375,5.40625 4.302562,1.586283 4.601121,-2.372208 7.21875,-0.5625 1.761693,0.600865 3.940531,-0.358213 2.8125,2.71875 2.481407,5.390364 13.159295,2.325626 12.0625,-3.96875 0.972656,-4.228496 -1.826204,-11.0349 1.15625,-13.875 2.250466,-1.53655 1.628847,-5.450493 -1.1875,-5.84375 -1.182315,-5.95546 2.869674,-14.259519 -2.40625,-18.8125 -3.71297,-2.61872 -11.817005,-1.357545 -9.40625,4.75 1.592822,2.139532 3.924002,2.477752 2.71875,5.96875 -0.268979,3.921043 0.126082,8.342767 0.5,11.875 -1.460133,2.129587 1.270176,8.294509 -2.4375,5.25 -4.131616,-1.115746 -7.418186,2.703645 -11.75,1.1875 -4.281777,-0.437019 -9.925321,0.740102 -13.65625,-0.34375 1.48443,-2.545413 8.029679,0.02341 11.093733,-0.886642 7.046058,1.490296 10.559175,-0.639904 8.740612,-8.113123 1.025128,-6.477388 -9.102112,-1.867469 -13.146827,-3.270199 -1.469615,-0.872727 -7.650443,1.797838 -6.468768,-1.323786 6.510421,0.0186 13.020807,0.05654 19.53125,0.0625 -0.592231,-4.807549 2.844582,-13.748674 -5.093746,-11.276356 -7.889876,1.140618 -18.747205,-3.190644 -24.281254,4.526356 -1.343603,3.186028 -1.503165,-2.651865 1.03125,-2.4375 3.380825,-3.193708 -0.3568,-9.088082 -4.874901,-7.006861 l -0.843849,0.0069 z M 28.75,48.09375 c 1.463036,2.73872 -1.44305,1.630365 0,0 z"/>
   <path style="opacity:0.06666703;fill:#000000;fill-opacity:1;stroke:none;display:inline" id="path3426" d="m 25.21875,25.6875 c -6.39104,0.504597 -6.269498,8.490807 -5.592616,13.155961 0.359076,3.754547 0.458708,6.54621 -2.313634,8.844039 -1.451565,3.808108 4.346054,4.797259 2.34375,8.75 0.05471,5.224539 -2.060759,15.165961 5.65625,15.875 4.552994,1.795784 9.162581,-2.371429 6.5625,-6.8125 6.94676,4.773125 16.192204,1.097419 24.03125,2.25 3.566511,0.874571 3.085132,-2.012683 6,-0.3125 3.000414,-0.433312 0.875876,5.337479 4.875,4.90625 5.481719,1.677443 11.185021,-2.994043 9.5625,-8.75 0.926813,-4.221526 -2.145967,-10.164443 2.03125,-12.71875 1.240438,-1.928682 0.222885,-4.771605 -2.0625,-5.28125 -1.171534,-6.05151 3.113936,-15.041848 -3.09375,-19.1875 -3.922184,-2.043593 -11.261583,-1.054229 -9.625,4.9375 0.508071,2.703438 4.525774,2.359044 2.9375,5.78125 -0.106188,4.092215 -0.10937,8.634584 0.53125,12.40625 -1.358264,2.352762 1.059144,7.276418 -2.8125,4.84375 -3.904387,-0.472611 -6.934449,2.775356 -11.0625,1.375 -4.14924,-0.453372 -9.954832,0.816326 -13.3125,-0.46875 6.433919,-0.20792 13.189399,-0.0049 19.75,-0.0625 C 58.676974,50.687924 62.845664,41.077628 55.218753,43.15262 50.304828,42.810901 44.229985,43.731179 39.875,42.78125 45.986663,42.129029 53.144625,42.750592 59.65625,42.5625 58.966794,37.438255 62.599552,28.014525 54.187504,30.598644 46.141725,31.710858 34.908788,27.331403 29.46875,35.5 c -0.007,-2.235 4.551933,-2.992295 2.9375,-6.5 -0.200364,-3.683096 -4.440192,-3.62663 -7.1875,-3.3125 z M 28.75,48.96875 c 0.206103,0.500338 -0.183595,-0.327656 0,0 z m 0.71875,13.9375 c 2.579018,2.120882 -0.481539,1.600816 0,0 z"/>
  </g>
 </g>
 <g style="display:inline" id="layer2">
  <path style="fill:#ffffff;fill-opacity:1;stroke:none;display:inline" id="path4774" d="m 66.778606,68.833099 3.912636,0 c 1.771279,-0.31083 2.953332,-1.352336 3.16591,-3.2324 l -0.02046,-15.159543 c 0.438415,-1.168295 0.956042,-1.091024 1.340014,-1.340014 0.840538,-0.03063 1.206276,-0.482918 1.237722,-1.196806 0.0036,-0.651001 -0.641393,-0.936245 -1.237722,-0.981995 -0.645994,-0.160219 -1.029342,-0.492421 -1.360472,-1.411618 l 0.12275,-14.689003 c -0.131264,-1.747294 -1.13228,-3.273845 -3.191482,-3.621107 l -3.825688,-0.02046 c -0.28999,0.131394 -0.675045,0.257464 -0.818328,0.838786 l -0.02046,1.861699 c 0.201944,0.483938 0.422156,0.599271 0.900161,0.736496 l 2.045822,0 0,14.62763 c 0.286257,1.627142 0.837897,2.060062 1.329785,2.76186 -0.415996,0.688839 -0.800795,0.556282 -1.309326,2.43453 l 0.02046,14.95496 -2.107197,0.04092 c -0.519786,0.153733 -0.850321,0.412607 -0.879703,0.838787 l 0.02046,1.800323 c 0.18672,0.558882 0.436446,0.613719 0.675121,0.756955 z M 66.9313,59.908618 c 0,2.291194 -1.725979,4.148577 -3.855083,4.148577 -2.129103,0 -3.855082,-1.857384 -3.855082,-4.148577 0,-2.291196 1.725979,-4.148577 3.855082,-4.148577 2.129104,0 3.855083,1.857381 3.855083,4.148577 z m -9.784432,4.349044 -19.23073,0 C 29.142878,63.365072 28.26579,52.647441 31.737754,48.15704 27.508689,41.860038 30.680559,32.446413 38.038887,32.117793 l 19.148897,-0.02046 -0.04092,6.955796 -17.594072,-0.06138 c -3.043385,0.391505 -2.936482,5.823439 0.450081,5.64647 l 17.225823,0.02046 -0.08183,7.058087 -18.269194,-0.02046 c -2.191296,0.945122 -2.035601,5.380864 0.69558,5.544178 l 17.61453,0 -0.04092,7.017171 z m -27.925476,4.562183 -3.912635,0 c -1.77128,-0.310828 -2.953333,-1.352336 -3.16591,-3.232398 l 0.02046,-15.159543 c -0.438415,-1.168295 -0.956041,-1.091024 -1.340013,-1.340015 -0.840538,-0.03063 -1.206276,-0.482918 -1.237723,-1.196805 -0.0036,-0.651001 0.641393,-0.936246 1.237723,-0.981996 0.645993,-0.160219 1.029342,-0.49242 1.360471,-1.411617 L 22.061014,30.808467 c 0.131264,-1.747293 1.13228,-3.273845 3.191483,-3.621106 l 3.825688,-0.02046 c 0.289991,0.131395 0.675046,0.257464 0.818329,0.838787 l 0.02046,1.861698 c -0.201946,0.483938 -0.422157,0.599271 -0.900163,0.736496 l -2.045822,0 0,14.62763 c -0.286257,1.627142 -0.837896,2.060062 -1.329785,2.76186 0.415997,0.688839 0.800795,0.556281 1.309326,2.434529 l -0.02046,14.954961 2.107197,0.04092 c 0.519787,0.153734 0.850322,0.412607 0.879705,0.838787 l -0.02046,1.800324 c -0.186719,0.558881 -0.436446,0.613719 -0.675122,0.756954 z"/>
 </g>
</svg>
